<?xml version="1.0" encoding="utf-8"?>
<!-- Generator: Adobe Illustrator 25.0.1, SVG Export Plug-In . SVG Version: 6.00 Build 0)  -->
<svg version="1.1" id="Capa_1" xmlns="http://www.w3.org/2000/svg" xmlns:xlink="http://www.w3.org/1999/xlink" x="0px" y="0px"
	 viewBox="0 0 512 512" style="enable-background:new 0 0 512 512;" xml:space="preserve">
<style type="text/css">
	.st0{fill:#BFE1FF;}
	.st1{fill:#87C7FF;}
	.st2{fill:#2462E0;}
	.st3{fill:#2153CC;}
	.st4{fill:#FFFFFF;}
	.st5{fill:#E9EDF5;}
</style>
<g>
	<g>
		<g>
			<g>
				<g>
					<g>
						<g>
							<circle class="st0" cx="256" cy="256" r="256"/>
						</g>
					</g>
				</g>
			</g>
		</g>
	</g>
	<path class="st1" d="M510.6,282.7L394.8,166.9L124.3,429.7l76.3,76.3c17.8,3.9,36.4,6,55.4,6C388.4,512,497.3,411.5,510.6,282.7
		L510.6,282.7z"/>
	<g>
		<g>
			<path class="st2" d="M301.5,73.5H144.2c-15,0-27.1,12.1-27.1,27.1v310.8c0,15,12.1,27.1,27.1,27.1h223.5
				c15,0,27.1-12.1,27.1-27.1V166.9L301.5,73.5z"/>
		</g>
		<g>
			<path class="st3" d="M301.5,73.5h-45.4v364.9h111.6c15,0,27.1-12.1,27.1-27.1V166.9L301.5,73.5z"/>
		</g>
		<g>
			<path class="st2" d="M301.5,139.8c0,15,12.1,27.1,27.1,27.1h66.3l-93.4-93.4V139.8z"/>
		</g>
	</g>
	<g>
		<g>
			<path class="st4" d="M177.8,219h156.4v30H177.8V219z"/>
		</g>
		<g>
			<path class="st4" d="M177.8,318h156.4v30H177.8V318z"/>
		</g>
		<g>
			<path class="st4" d="M177.8,367.6h69.6v30h-69.6V367.6z"/>
		</g>
		<g>
			<path class="st4" d="M177.8,268.5h156.4v30H177.8V268.5z"/>
		</g>
		<g>
			<path class="st5" d="M256.1,219h78.1v30h-78.1V219z"/>
		</g>
		<g>
			<path class="st5" d="M256.1,318h78.1v30h-78.1V318z"/>
		</g>
		<g>
			<path class="st5" d="M256.1,268.5h78.1v30h-78.1V268.5z"/>
		</g>
	</g>
</g>
</svg>
