<?xml version="1.0" encoding="utf-8"?>
<!-- Generator: Adobe Illustrator 25.0.1, SVG Export Plug-In . SVG Version: 6.00 Build 0)  -->
<svg version="1.1" id="Layer_1" xmlns="http://www.w3.org/2000/svg" xmlns:xlink="http://www.w3.org/1999/xlink" x="0px" y="0px"
	 viewBox="0 0 24 24" style="enable-background:new 0 0 24 24;" xml:space="preserve">
<style type="text/css">
	.st0{fill:#2153CC;}
</style>
<g>
	<g>
		<g>
			<path class="st0" d="M4.5,19V5.1c0-0.3,0.2-0.6,0.6-0.6h8v2.1c0,0.6,0.5,1.1,1.1,1.1h2.1v1.6h1.1v-2c0-0.1-0.1-0.3-0.1-0.4
				L14,3.8c-0.1-0.1-0.2-0.1-0.4-0.1H5.1c-0.9,0-1.6,0.7-1.6,1.6v13.9c0,0.9,0.7,1.6,1.6,1.6h3.8v-1.1H5.1C4.8,19.6,4.5,19.3,4.5,19
				z"/>
			<path class="st0" d="M19.5,14.2h-1.1v1.1h1.1v1.1h-2.1v-3.2h3.2c0-0.6-0.5-1.1-1.1-1.1h-2.1c-0.6,0-1.1,0.5-1.1,1.1v3.2
				c0,0.6,0.5,1.1,1.1,1.1h2.1c0.6,0,1.1-0.5,1.1-1.1v-1.1C20.6,14.7,20.1,14.2,19.5,14.2z"/>
			<path class="st0" d="M13.6,12.1c-1.2,0-2.1,1-2.1,2.1v1.1c0,1.2,1,2.1,2.1,2.1s2.1-1,2.1-2.1v-1.1C15.8,13.1,14.8,12.1,13.6,12.1
				z M14.7,15.2c0,0.6-0.5,1.1-1.1,1.1s-1.1-0.5-1.1-1.1v-1.1c0-0.6,0.5-1.1,1.1-1.1s1.1,0.5,1.1,1.1V15.2z"/>
			<path class="st0" d="M8.8,12.1H7.7v4.8c0,0.3,0.2,0.6,0.6,0.6H11v-1.1H8.9L8.8,12.1L8.8,12.1z"/>
		</g>
	</g>
</g>
</svg>
